<?xml version="1.0" encoding="iso-8859-1"?>
<!-- Uploaded to: SVG Repo, www.svgrepo.com, Generator: SVG Repo Mixer Tools -->
<svg version="1.1" id="Layer_1" xmlns="http://www.w3.org/2000/svg" xmlns:xlink="http://www.w3.org/1999/xlink" 
	 viewBox="0 0 512 512" xml:space="preserve">
<rect x="123.605" y="334.279" style="fill:#FF2E48;" width="264.792" height="167.522"/>
<rect x="123.605" y="170.765" style="fill:#BDCED4;" width="264.792" height="163.514"/>
<polygon style="fill:#FF2E48;" points="148.955,65.067 123.606,170.767 388.395,170.767 363.046,65.067 "/>
<rect x="123.605" y="10.199" style="fill:#BDCED4;" width="264.792" height="54.868"/>
<path d="M113.406,501.801c0,5.632,4.567,10.199,10.199,10.199h264.789c5.632,0,10.199-4.567,10.199-10.199V170.768
	c0-0.006-0.003-0.011-0.003-0.016c-0.001-0.788-0.091-1.58-0.277-2.362l-22.332-93.124h12.413c5.632,0,10.199-4.567,10.199-10.199
	V10.199C398.594,4.567,394.026,0,388.394,0H123.606c-5.632,0-10.199,4.567-10.199,10.199v54.868c0,5.632,4.567,10.199,10.199,10.199
	h12.414l-22.332,93.124c-0.187,0.779-0.276,1.57-0.277,2.356c0,0.008-0.003,0.014-0.003,0.022v331.032H113.406z M133.805,180.968
	h244.39v143.114h-244.39V180.968z M378.196,491.602H133.805V344.48h244.39v147.121H378.196z M375.461,160.569H136.54l20.458-85.303
	h198.006L375.461,160.569z M133.805,54.868V20.398h244.39v34.469H133.805z"/>
<path d="M264.16,293.737H154.008c-5.632,0-10.199,4.567-10.199,10.199c0,5.632,4.567,10.199,10.199,10.199H264.16
	c5.632,0,10.199-4.567,10.199-10.199C274.359,298.304,269.792,293.737,264.16,293.737z"/>
<path d="M309.036,293.737h-8.159c-5.632,0-10.199,4.567-10.199,10.199c0,5.632,4.567,10.199,10.199,10.199h8.159
	c5.632,0,10.199-4.567,10.199-10.199C319.236,298.304,314.668,293.737,309.036,293.737z"/>
</svg>